<?xml version="1.0" encoding="UTF-8"?>
<svg version="1.1" xmlns="http://www.w3.org/2000/svg" width="1536" height="1024">
<path d="M0 0 C0.680625 0.06703125 1.36125 0.1340625 2.0625 0.203125 C4.55808615 0.90752432 5.41338444 1.69718073 7 3.75 C7.37259549 6.25780123 7.37259549 6.25780123 7.36914349 9.3197279 C7.37511663 10.48567177 7.38108978 11.65161564 7.38724393 12.85289115 C7.3785054 14.13983841 7.36976688 15.42678566 7.36076355 16.75273132 C7.36207111 18.12888083 7.36469661 19.5050296 7.36853105 20.88117439 C7.37525782 24.6712155 7.36321346 28.46100359 7.34819686 32.25101244 C7.33527219 36.33484251 7.33962343 40.41865768 7.34190369 44.50250244 C7.34347869 51.580847 7.33404584 58.65910875 7.31719017 65.73743248 C7.29283539 75.97155618 7.28499851 86.20563974 7.2812262 96.43978927 C7.27465617 113.04297142 7.25468008 129.64610941 7.22631836 146.24926758 C7.19879203 162.3801247 7.17755148 178.51096984 7.16479492 194.6418457 C7.16400675 195.63572706 7.16321858 196.62960842 7.16240653 197.65360739 C7.15849149 202.63949114 7.15470035 207.62537497 7.15097082 212.61125886 C7.11985775 253.99087846 7.06454544 295.3704164 7 336.75 C38.02 336.75 69.04 336.75 101 336.75 C100.97905273 326.71368164 100.95810547 316.67736328 100.93652344 306.33691406 C100.87236376 274.24787446 100.82784745 242.15883463 100.79573868 210.06974758 C100.79073568 205.08783937 100.78555841 200.10593136 100.78027344 195.12402344 C100.77869957 193.63627114 100.77869957 193.63627114 100.77709392 192.11846325 C100.75967463 176.04535043 100.72812857 159.97229467 100.69138882 143.89921573 C100.65402176 127.41457908 100.63177313 110.92997236 100.62364602 94.4452951 C100.61814944 84.26811961 100.60077069 74.09110537 100.56833413 63.9139795 C100.5472385 56.94117991 100.54078869 49.96846403 100.54599449 42.99563482 C100.54856402 38.96879872 100.54454373 34.94224496 100.5231781 30.91545868 C100.50377371 27.23152353 100.50268964 23.54806171 100.51640442 19.86410519 C100.5189062 17.89464128 100.50159933 15.92518327 100.48367476 13.95579934 C100.49163896 12.79134782 100.49960315 11.62689629 100.50780869 10.42715836 C100.5062898 9.42014004 100.50477092 8.41312172 100.50320601 7.3755877 C101.13543374 4.03422409 102.39055802 2.85778849 105 0.75 C108.94120491 -0.68387773 112.1252012 -0.64086755 115.9375 1.0625 C118 2.75 118 2.75 119 4.75 C119.31775722 8.35124845 119.51166573 11.95331695 119.71875 15.5625 C119.79425082 18.64422513 119.79425082 18.64422513 121 20.75 C123.18282269 21.45504511 125.40144181 22.04974595 127.62890625 22.59765625 C128.31708435 22.77002808 129.00526245 22.9423999 129.71429443 23.11999512 C131.20946589 23.4940691 132.70551236 23.86465864 134.20230103 24.23220825 C138.21770071 25.21945692 142.22597805 26.23475335 146.234375 27.25 C147.05500931 27.45742325 147.87564362 27.6648465 148.72114563 27.8785553 C156.62428608 29.88698302 164.47216249 32.07311871 172.3125 34.3125 C180.26171425 36.58255828 188.21180831 38.82924288 196.2109375 40.91796875 C197.22117226 41.18263695 197.22117226 41.18263695 198.2518158 41.45265198 C201.43868282 42.28642743 204.62711771 43.11184735 207.81958008 43.92407227 C213.70480849 45.45587804 219.49993111 47.15388985 225.23828125 49.171875 C226.29700439 49.5440918 227.35572754 49.91630859 228.4465332 50.29980469 C231 51.75 231 51.75 232.36010742 54.41113281 C232.57127197 55.18295898 232.78243652 55.95478516 233 56.75 C228.64553232 62.1257714 223.78512013 63.52785993 217.3125 65.5625 C214.95751811 66.33996988 212.60480495 67.1243319 210.25390625 67.9140625 C209.29295547 68.2367234 209.29295547 68.2367234 208.31259155 68.56590271 C199.36466544 71.6018521 190.56763635 75.04618647 181.75 78.4375 C178.15036173 79.81803331 174.5499659 81.19658042 170.94921875 82.57421875 C170.0497049 82.91840347 169.15019104 83.2625882 168.22341919 83.61720276 C159.19649695 87.06599959 150.14959296 90.45994995 141.08728027 93.81460571 C139.41270077 94.43501301 137.73878237 95.05720782 136.06555176 95.6812439 C133.75511891 96.54240576 131.44242488 97.39716892 129.12890625 98.25 C128.44657425 98.50542068 127.76424225 98.76084137 127.06123352 99.02400208 C124.21952174 100.06370619 122.05403468 100.75 119 100.75 C119 178.96 119 257.17 119 337.75 C180.30945597 337.42233301 180.30945597 337.42233301 241.61889648 337.09179688 C253.64855957 337.02832031 253.64855957 337.02832031 259.33241272 336.99865723 C263.18776305 336.97845078 267.04310883 336.95754868 270.89845276 336.93615723 C281.6265257 336.87692035 292.35457201 336.82441501 303.08274305 336.78643322 C309.32860049 336.76348146 315.57428186 336.72800163 321.82004327 336.6866622 C326.23168481 336.65969902 330.64333569 336.64174751 335.05502903 336.62567997 C337.14265603 336.61630304 339.23027101 336.60341112 341.31785095 336.5865469 C358.20031902 336.45347511 374.84792603 337.17477135 391.375 340.9375 C392.32705322 341.15108154 393.27910645 341.36466309 394.26000977 341.5847168 C410.44200187 345.35645932 425.40255538 350.84848143 440 358.75 C440.969375 359.24113281 441.93875 359.73226563 442.9375 360.23828125 C462.1729444 370.16354689 480.37007619 384.47805353 487.625 405.5 C489.4998606 412.56082823 489.67354151 418.40291698 486.375 425 C471.84334236 441.8261299 447.88245188 443.19633106 427 444.75 C415.98685966 445.23457685 404.96050819 445.1670259 393.93903657 445.14160402 C389.52603325 445.13480583 385.11306345 445.14560382 380.70006764 445.15399987 C372.99043247 445.16629427 365.28085822 445.16761074 357.57121658 445.16144943 C346.10715543 445.15231234 334.64315006 445.1604267 323.17909317 445.17174067 C302.70258088 445.19135286 282.22609399 445.19376597 261.74957456 445.18854547 C243.84108382 445.18398203 225.93260311 445.18459539 208.0241127 445.19038582 C205.61865577 445.19114269 203.21319885 445.19189867 200.80774192 445.19265376 C197.18276649 445.19379898 193.55779107 445.19494886 189.93281565 445.19611301 C156.26160043 445.20680815 122.59038853 445.2115527 88.91917229 445.20364285 C87.65143939 445.20334567 86.38370649 445.2030485 85.07755745 445.20274232 C74.78352105 445.20029353 64.48948469 445.19768188 54.19544833 445.19505819 C13.99242497 445.18494309 -26.21055667 445.19333908 -66.41357422 445.21655273 C-111.60565441 445.24260508 -156.79770949 445.25547991 -201.98979747 445.24836498 C-206.80413047 445.24764892 -211.61846347 445.24697454 -216.43279648 445.24632454 C-217.61817142 445.24615473 -218.80354636 445.24598492 -220.02484176 445.24580997 C-237.93507985 445.24350489 -255.84529464 445.25149322 -273.7555275 445.26461601 C-294.10348389 445.27949853 -314.45138555 445.28040807 -334.79934074 445.2625451 C-346.19135552 445.25295671 -357.58324275 445.25446891 -368.97524911 445.27177979 C-376.57690014 445.2822281 -384.17845349 445.2782273 -391.78009482 445.26229975 C-396.11569692 445.25362472 -400.45104811 445.25134822 -404.7866378 445.26656907 C-408.72864678 445.28027828 -412.6701884 445.27566769 -416.61216969 445.25628388 C-418.03119594 445.25254027 -419.45025958 445.25553225 -420.86925218 445.26599697 C-434.11463954 445.35696757 -434.11463954 445.35696757 -440 440.75 C-443.32938431 436.45684655 -445.13598553 432.93468988 -445.25 427.5 C-445.27578125 426.77296875 -445.3015625 426.0459375 -445.328125 425.296875 C-444.42144696 418.25932642 -440.33009842 413.15094419 -436.0625 407.75 C-435.48693359 407.00943359 -434.91136719 406.26886719 -434.31835938 405.50585938 C-430.10732183 400.10484627 -425.83021567 394.7558428 -421.52832031 389.42700195 C-418.27771282 385.3893884 -415.11642844 381.29324272 -411.99145508 377.15771484 C-394.42072515 353.92255155 -375.80623841 342.2581979 -346.8125 337.9375 C-298.55642324 331.47178838 -298.55642324 331.47178838 -284 338.75 C-284 330.17 -284 321.59 -284 312.75 C-286.06378906 312.79898437 -288.12757813 312.84796875 -290.25390625 312.8984375 C-299.02101483 312.97055051 -307.58096998 311.87168316 -316.2585144 310.72747803 C-331.98704808 308.658052 -347.63369753 307.0639727 -363.48999023 306.47119141 C-365.31832397 306.38877197 -365.31832397 306.38877197 -367.18359375 306.3046875 C-368.24118896 306.26843262 -369.29878418 306.23217773 -370.38842773 306.19482422 C-373.30775088 305.69758137 -374.29933877 305.14277369 -376 302.75 C-375.49343345 295.05939867 -365.69027969 288.55413702 -360.40234375 283.90234375 C-358.36804531 282.07974466 -356.45565472 280.21579375 -354.5625 278.25 C-350.04369698 273.6790168 -345.03603731 269.73002372 -340 265.75 C-339.38334473 265.25693359 -338.76668945 264.76386719 -338.13134766 264.25585938 C-318.44301738 248.55938765 -289.54943408 227.75 -263 227.75 C-263.13631836 226.08167114 -263.13631836 226.08167114 -263.27539062 224.37963867 C-263.61851666 220.15497131 -263.95147165 215.92954785 -264.28173828 211.70385742 C-264.42457896 209.89342366 -264.56998562 208.08319006 -264.71826172 206.27319336 C-265.50594385 196.63614355 -266.14574948 187.02359724 -266.22265625 177.3515625 C-266.24005859 176.20079475 -266.24005859 176.20079475 -266.2578125 175.02677917 C-266.24510535 167.39258607 -264.29260648 160.85322279 -259.4609375 154.83203125 C-251.6776436 147.36228236 -240.59184729 145.3576087 -230.19921875 145.47265625 C-222.63004166 146.12883644 -216.05655526 148.92420032 -210.44140625 154.03125 C-208.85539759 155.92242564 -208.06724051 157.75458801 -207.0625 160 C-205.97991694 162.16403646 -205.97991694 162.16403646 -204 163.75 C-199.97605079 164.71061274 -196.07912089 165.08856889 -191.96484375 165.40625 C-185.657113 165.95312715 -180.95351702 167.12899651 -176.0625 171.1875 C-172.81566069 175.22145188 -172.81566069 175.22145188 -172 177.75 C-172.29185394 179.09302277 -172.62098116 180.4289271 -173 181.75 C-173.98395752 181.76458252 -174.96791504 181.77916504 -175.98168945 181.79418945 C-179.63293774 181.85216998 -183.28356911 181.92940185 -186.93432617 182.01245117 C-188.51430243 182.04570188 -190.09439752 182.07373346 -191.67456055 182.09643555 C-193.94631579 182.12998016 -196.21698203 182.18229227 -198.48828125 182.23828125 C-199.54780754 182.24786613 -199.54780754 182.24786613 -200.6287384 182.25764465 C-204.51329224 182.36510163 -204.51329224 182.36510163 -207.87573242 184.13574219 C-209.35970489 186.26647529 -210.70125334 188.43836842 -212 190.6875 C-214.80383305 195.528493 -214.80383305 195.528493 -216.75390625 197.73046875 C-218.25646634 199.71533949 -218.25646634 199.71533949 -217.77734375 202.2734375 C-217.50019531 203.21445312 -217.22304688 204.15546875 -216.9375 205.125 C-216.6384375 206.1871875 -216.339375 207.249375 -216.03125 208.34375 C-215.6909375 209.4678125 -215.350625 210.591875 -215 211.75 C-208.3599977 233.68212882 -205.09729619 257.73612433 -215.125 279.1875 C-220.71668505 289.40961607 -228.09069836 296.72093972 -238 302.75 C-238.73347656 303.21148438 -239.46695313 303.67296875 -240.22265625 304.1484375 C-247.97810993 308.53831694 -259.0296891 311.75 -268 311.75 C-268 320.66 -268 329.57 -268 338.75 C-267.01 338.42 -266.02 338.09 -265 337.75 C-262.39115424 337.64662256 -259.80851923 337.59953494 -257.19932556 337.59851074 C-256.39587395 337.59427833 -255.59242233 337.59004592 -254.7646237 337.58568525 C-252.06174925 337.57263046 -249.35890434 337.56662716 -246.65600586 337.56054688 C-244.72060465 337.55260485 -242.78520523 337.54421692 -240.84980774 337.53541565 C-236.67069455 337.51732668 -232.49158538 337.50232037 -228.31245232 337.48963928 C-221.67007355 337.46936689 -215.027738 337.4417072 -208.38539124 337.41296387 C-195.43459564 337.35790149 -182.48377886 337.30988576 -169.53295135 337.26302338 C-153.16250078 337.20372664 -136.79206258 337.14267511 -120.42165476 337.07245111 C-114.91867647 337.04906362 -109.41570421 337.02747371 -103.91270256 337.01036072 C-82.71433194 336.94419779 -61.52995047 336.86126443 -40.3434515 336.09137726 C-30.22507682 335.7306438 -20.12312662 335.70258502 -10 335.75 C-10.00170874 334.70169939 -10.00170874 334.70169939 -10.003452 333.63222098 C-10.07054323 292.23880298 -10.12203791 250.84539127 -10.15319599 209.45192985 C-10.15694824 204.48504299 -10.1608312 199.51815623 -10.16479492 194.55126953 C-10.16558185 193.56242528 -10.16636878 192.57358104 -10.16717956 191.55477181 C-10.18024399 175.53017115 -10.20390353 159.50560268 -10.23145839 143.48102114 C-10.25948376 127.04610348 -10.27617018 110.61120271 -10.28226548 94.17626214 C-10.28638789 84.02982675 -10.29942191 73.88348234 -10.3237494 63.73707494 C-10.3395712 56.78530799 -10.34440845 49.83358828 -10.34050413 42.88180462 C-10.33857702 38.86716836 -10.34159214 34.85269141 -10.35761642 30.83808327 C-10.37216966 27.1653163 -10.37298243 23.49281641 -10.36269668 19.82003739 C-10.3608204 17.85655085 -10.37380021 15.89306764 -10.38724393 13.92962623 C-10.38127078 12.7686581 -10.37529764 11.60768997 -10.36914349 10.41154099 C-10.37085223 8.90557016 -10.37085223 8.90557016 -10.37259549 7.36917567 C-9.9367009 4.30503633 -9.14650495 2.95353925 -7 0.75 C-4.12855796 -0.20714735 -2.90054419 -0.32960729 0 0 Z M-231 163.75 C-233.18712805 165.35204619 -233.18712805 165.35204619 -235 167.75 C-235.25329784 170.89710302 -235.25329784 170.89710302 -234 173.75 C-231.81968848 175.50548759 -231.81968848 175.50548759 -229 175.75 C-226.19832713 174.48666727 -226.19832713 174.48666727 -224 172.75 C-224.33 170.44 -224.66 168.13 -225 165.75 C-226.98 165.09 -228.96 164.43 -231 163.75 Z M-387.51171875 372.0859375 C-391.8734691 376.75581778 -395.71378075 381.79692248 -399.5703125 386.88525391 C-401.94980539 389.98883428 -404.41734385 393.02074265 -406.875 396.0625 C-412.9596347 403.63099658 -418.89300716 411.3172384 -424.72314453 419.08349609 C-425.74797469 420.42106601 -426.83204231 421.71315201 -427.93359375 422.98828125 C-429.25496308 424.72093106 -429.25496308 424.72093106 -428.56665039 426.86010742 C-428.37965576 427.48377197 -428.19266113 428.10743652 -428 428.75 C-408.30277682 428.96033306 -388.60578179 429.11899342 -368.90766811 429.21630955 C-359.76122413 429.26269843 -350.61547827 429.32592992 -341.46948242 429.42895508 C-333.49685973 429.51871988 -325.52474264 429.57673761 -317.55162865 429.59679645 C-313.33041254 429.60852078 -309.1106427 429.63602761 -304.88989067 429.70157051 C-300.91431472 429.76280417 -296.94077592 429.78147779 -292.96477318 429.76796913 C-291.50823631 429.77043903 -290.05162923 429.7882638 -288.59550095 429.82284927 C-280.55300797 430.18067246 -280.55300797 430.18067246 -273.60988331 426.77834892 C-271.82315507 424.51142335 -270.38740769 422.27594751 -269 419.75 C-267.97386597 418.33267578 -267.97386597 418.33267578 -266.92700195 416.88671875 C-266.36972412 416.07847656 -265.81244629 415.27023437 -265.23828125 414.4375 C-264.60067871 413.51614258 -263.96307617 412.59478516 -263.30615234 411.64550781 C-262.64824707 410.68999023 -261.9903418 409.73447266 -261.3125 408.75 C-259.89491972 406.70285594 -258.47694811 404.65598282 -257.05859375 402.609375 C-256.36749512 401.61099609 -255.67639648 400.61261719 -254.96435547 399.58398438 C-247.38586046 388.65045591 -239.65790544 377.84166802 -231.71826172 367.16699219 C-228.69557616 363.09533413 -225.76596961 359.00064447 -223 354.75 C-310.12191476 344.7747171 -310.12191476 344.7747171 -387.51171875 372.0859375 Z M-211.71166992 361.49804688 C-212.9794935 363.57146157 -214.07367582 365.62677899 -215.08176994 367.83720207 C-216.39678627 370.57655969 -218.23118825 372.79648598 -220.1640625 375.125 C-221.32200744 376.66344023 -222.47573755 378.2050629 -223.625 379.75 C-224.25341797 380.59191895 -224.88183594 381.43383789 -225.52929688 382.30126953 C-230.67915347 389.23992698 -235.62059977 396.3012966 -240.45166016 403.46435547 C-242.29357749 406.1833763 -244.15227349 408.89059316 -246.01171875 411.59765625 C-247.40372161 413.62755221 -248.79564911 415.65749984 -250.1875 417.6875 C-251.19683594 419.15582275 -251.19683594 419.15582275 -252.2265625 420.65380859 C-252.84660156 421.5608252 -253.46664062 422.4678418 -254.10546875 423.40234375 C-254.66387451 424.21695068 -255.22228027 425.03155762 -255.79760742 425.87084961 C-257.08982831 427.51856938 -257.08982831 427.51856938 -257 428.75 C-233.9215714 429.26504598 -210.84409616 429.65240614 -187.76107693 429.88986778 C-177.04163912 430.00308456 -166.32578122 430.15726653 -155.60864258 430.40966797 C-146.26181228 430.62969113 -136.91757437 430.77104484 -127.5682264 430.81994689 C-122.62089057 430.84852029 -117.68096655 430.91507501 -112.73602104 431.07606125 C-93.04165918 432.55871542 -93.04165918 432.55871542 -74.93761063 426.6407547 C-70.03100857 421.60490829 -67.05860486 415.97373588 -64.32617378 409.55401993 C-62.14474917 404.94168469 -59.02689231 401.10727348 -55.875 397.125 C-49.29108235 388.34556022 -43.33023955 379.21777315 -37.42919922 369.97070312 C-34.78318574 365.85930261 -32.03753603 361.81564589 -29.29296875 357.76953125 C-27.91013461 356.0092984 -27.91013461 356.0092984 -28 354.75 C-50.59142387 354.24475898 -73.18286044 353.83254593 -95.7779417 353.52985382 C-106.2703523 353.3871443 -116.76064216 353.21446954 -127.2512207 352.97021484 C-136.3991746 352.75729797 -145.54604377 352.60165633 -154.69608241 352.51361704 C-159.53814545 352.46505751 -164.37601154 352.38864216 -169.21622276 352.24351501 C-192.87070678 350.20709812 -192.87070678 350.20709812 -211.71166992 361.49804688 Z M178.3594265 361.26401901 C177.91081575 362.08439274 177.46220501 362.90476646 177 363.75 C176.22966292 364.91265405 175.45443385 366.07209929 174.671875 367.2265625 C174.03765625 368.26554687 173.4034375 369.30453125 172.75 370.375 C169.62974468 375.37284095 166.2892019 380.08948453 162.6875 384.75 C156.54171641 392.74634961 150.961462 401.10929607 145.375 409.5 C144.9256308 410.17337402 144.4762616 410.84674805 144.01327515 411.54052734 C142.72176159 413.47801914 141.4341953 415.41805985 140.1484375 417.359375 C139.56481697 418.2365921 139.56481697 418.2365921 138.96940613 419.13153076 C137.12120918 421.93600372 135.46793073 424.73194701 134 427.75 C170.53575754 427.79589895 207.07150998 427.83108063 243.60729048 427.85213066 C247.93252964 427.85463171 252.25776874 427.85722039 256.58300781 427.85986328 C257.87448206 427.86065021 257.87448206 427.86065021 259.1920467 427.86145304 C273.08534042 427.87012699 286.97861739 427.88588016 300.87190121 427.90430559 C315.15537281 427.9230888 329.43883569 427.93413441 343.72231913 427.93817699 C352.51746096 427.94090469 361.31255542 427.94948125 370.10768265 427.96583293 C376.16019568 427.9765041 382.21268466 427.97957804 388.2652064 427.97700275 C391.74356968 427.975737 395.2218509 427.97750712 398.70019913 427.98841095 C434.36093438 429.817632 434.36093438 429.817632 468 420.75 C470.65152913 417.87119695 472.46306988 415.65169219 473 411.75 C469.42837189 396.54431856 456.99934317 388.07706269 444.58154297 380.21972656 C415.61312387 362.35764349 384.61106735 353.53374611 350.64697266 353.36425781 C348.84509687 353.3484139 347.0432271 353.33187359 345.24136353 353.31469727 C339.38232253 353.2628219 333.52325656 353.23173693 327.6640625 353.203125 C325.63662074 353.19238934 323.60917908 353.18163432 321.58173752 353.17086029 C313.1521151 353.12771936 304.72249958 353.09024042 296.29279518 353.06761551 C284.25100862 353.03506448 272.21050406 352.96840597 260.16920054 352.85481381 C251.67459599 352.77742308 243.18033484 352.73835359 234.68538702 352.72777438 C229.62099682 352.72047666 224.55798311 352.69653397 219.49397659 352.63156891 C214.73755412 352.5714022 209.98334164 352.55878015 205.22661972 352.58233643 C203.48509725 352.58277765 201.74347172 352.56618483 200.00230408 352.53102875 C190.41888917 352.3480911 183.95946469 352.4423276 178.3594265 361.26401901 Z M-15.57682037 363.00274944 C-16.28129429 364.36263847 -16.28129429 364.36263847 -17 365.75 C-17.89009066 367.07747841 -18.79553233 368.39512148 -19.73046875 369.69140625 C-20.55047554 370.89776082 -21.36947506 372.10480066 -22.1875 373.3125 C-26.21476002 379.21948131 -30.35375032 385.03365321 -34.5625 390.8125 C-49.72062373 408.7261325 -49.72062373 408.7261325 -59 428.75 C-36.58207747 429.00707536 -14.16439828 429.20099254 8.25469971 429.31993389 C18.6646047 429.37663129 29.07359337 429.45391306 39.48291016 429.57983398 C48.55680995 429.68954803 57.63004614 429.7604572 66.7045908 429.78497344 C71.50898462 429.79930325 76.31148022 429.83292027 81.11526489 429.91303062 C85.64011063 429.98787568 90.16228286 430.01069522 94.68768883 429.99418449 C96.34541057 429.99720318 98.00322448 430.01898888 99.66040993 430.06126022 C108.82693065 430.46299646 108.82693065 430.46299646 116.69659424 426.39954567 C118.76958947 423.59963324 120.40718579 420.84359995 122 417.75 C123.0708623 416.0130825 124.15245177 414.28267916 125.25 412.5625 C126.09691406 411.20898438 126.09691406 411.20898438 126.9609375 409.828125 C131.32243457 403.24410261 136.21348817 397.0280318 141 390.75 C146.24322532 383.85193613 151.36890791 376.88413219 156.375 369.8125 C156.88740234 369.09006104 157.39980469 368.36762207 157.92773438 367.62329102 C162.77307524 361.65770335 162.77307524 361.65770335 165 354.75 C142.45169185 354.49292781 119.90362562 354.29900898 97.35414886 354.18006611 C86.88371263 354.12336806 76.41418739 354.04608497 65.94433594 353.92016602 C56.81769847 353.81045406 47.69172074 353.73954327 38.56444216 353.71502656 C33.73210753 353.70069643 28.90166007 353.66707708 24.06993103 353.58696938 C19.51882452 353.51212776 14.97037607 353.48930417 10.41871262 353.50581551 C8.75131639 353.50279667 7.08382858 353.48100911 5.41696548 353.43873978 C-4.41340885 353.20174689 -10.22621103 353.76785048 -15.57682037 363.00274944 Z " fill="#FFFFFF" transform="translate(735,267.25)"/>
<path d="M0 0 C15.46432971 9.35052494 31.94769267 14.0421676 50.08203125 10.640625 C61.47147941 7.78988531 71.54259999 2.24225228 81.875 -3.18359375 C110.19444994 -18.04226153 134.82848332 -23.4447001 166.15234375 -14.05078125 C176.35956734 -10.3143188 185.69900656 -4.92436953 194.8125 0.94140625 C209.08154102 9.81227995 226.67315825 14.32568302 243.375 10.81640625 C254.56493958 7.64394944 264.43055791 2.32429103 274.5625 -3.24609375 C300.9872878 -17.73261757 324.86918315 -23.23063471 354.375 -15.18359375 C364.59174309 -12.11468613 373.66372887 -6.94997934 382.88671875 -1.71875 C400.18671626 8.08445772 417.33240562 15.46729313 437.71362305 10.58349609 C447.25985455 7.83198161 456.08448236 3.02632736 464.8125 -1.62109375 C467.01731967 -2.77647684 469.2230388 -3.93014523 471.4296875 -5.08203125 C472.46577148 -5.62311523 473.50185547 -6.16419922 474.56933594 -6.72167969 C499.34764412 -19.63261855 523.82226501 -22.14242517 550.72265625 -13.93359375 C560.51585529 -10.63063342 569.31862166 -5.50587187 578.25146484 -0.38671875 C586.95107967 4.54219616 595.52458448 8.73298503 605.375 10.81640625 C606.344375 11.04328125 607.31375 11.27015625 608.3125 11.50390625 C627.96936394 13.50970869 643.17670972 6.79578641 659.8203125 -2.71484375 C684.1780547 -16.61336202 709.27559249 -23.05551828 737.14453125 -15.5078125 C748.15549675 -12.20172754 758.41347905 -7.26648256 768.61743164 -2.03759766 C775.94478277 1.68687252 783.52842875 4.87778447 791.5 6.94140625 C795.9459282 8.29451483 795.9459282 8.29451483 797.375 10.81640625 C797.76067013 14.86594262 797.87738217 17.56045083 796.375 21.31640625 C793.30463342 23.61918119 790.04552701 23.11775504 786.375 22.81640625 C783.71226366 22.22027125 781.31163687 21.57107076 778.75 20.69140625 C778.00927246 20.44350342 777.26854492 20.19560059 776.50537109 19.94018555 C767.10018508 16.61241218 758.12792483 12.15447242 749.18505859 7.75537109 C731.90213974 -0.66185321 710.32148984 -4.94795617 691.390625 0.6640625 C682.90401996 3.90700095 674.98297361 8.32716877 667.09375 12.796875 C645.53116914 24.95688102 623.34870983 33.35713978 598.375 26.81640625 C586.24028355 23.33064947 575.46574444 17.98169732 564.64331055 11.52416992 C553.88826985 5.14223733 543.78410432 1.19518703 531.375 -0.55859375 C530.28960938 -0.73519531 529.20421875 -0.91179688 528.0859375 -1.09375 C511.75745842 -3.52938232 497.43612918 -0.39955282 483.0625 7.50390625 C481.5616687 8.30465576 481.5616687 8.30465576 480.03051758 9.12158203 C475.72291942 11.42512159 471.44090777 13.76983891 467.1875 16.171875 C447.33245958 27.29529322 426.02611533 32.39896417 403.54785156 26.4831543 C393.67003878 23.4521086 384.88228751 19.09445699 376 13.87890625 C354.32861818 1.50922773 332.12788909 -6.39916877 306.96875 -0.33203125 C297.930892 2.5561538 289.78278138 7.4832641 281.515625 12.0546875 C257.8044138 25.13577246 236.48435493 32.87634067 209.375 25.81640625 C198.71949438 22.58107121 189.31927263 17.17414526 179.75756836 11.57470703 C171.1139458 6.5286434 162.62142792 1.82766482 152.6875 0.06640625 C151.40875 -0.16175781 150.13 -0.38992188 148.8125 -0.625 C147.678125 -0.80933594 146.54375 -0.99367188 145.375 -1.18359375 C144.611875 -1.31636719 143.84875 -1.44914063 143.0625 -1.5859375 C125.0913699 -4.31904687 109.73432097 0.95809602 94.125 9.19140625 C92.85496152 9.84659516 91.58412731 10.50024389 90.3125 11.15234375 C87.83434465 12.42591074 85.35918387 13.7049599 82.88720703 14.99047852 C81.72817871 15.59303467 80.56915039 16.19559082 79.375 16.81640625 C78.28687012 17.38222412 77.19874023 17.94804199 76.07763672 18.53100586 C70.4824091 21.39293263 65.03961447 23.8831759 59 25.62890625 C58.34128906 25.83193359 57.68257812 26.03496094 57.00390625 26.24414062 C38.17494821 31.91528803 17.85865471 28.19624456 0.375 19.81640625 C-3.26406948 17.85483855 -6.79672677 15.72629211 -10.32641602 13.57568359 C-30.15490763 1.52123774 -53.15108416 -5.87862358 -76.390625 -0.55078125 C-88.02450107 2.86659877 -99.11302327 9.25810659 -109.66210938 15.14135742 C-130.02450956 26.46780252 -151.75113477 30.47414026 -174.546875 24.9140625 C-183.59207785 22.32048903 -191.95816639 18.49454389 -200.45385742 14.47949219 C-207.31530251 11.27584466 -214.0674876 8.96286263 -221.41015625 7.14453125 C-225.66435947 5.38702324 -227.07638415 3.62728552 -229.625 -0.18359375 C-229.625 -3.71930113 -229.49244649 -6.01361192 -227.359375 -8.890625 C-224.33272949 -11.14697559 -221.4721948 -10.25921763 -217.8828125 -9.8046875 C-207.56882475 -7.83835171 -198.4832816 -3.72169588 -189.125 0.87890625 C-171.29022792 9.55214375 -152.482548 13.67101829 -133.1015625 7.203125 C-123.78228843 3.48588647 -114.86707328 -0.94534961 -106.0402832 -5.70385742 C-69.59939841 -25.34799658 -34.8348428 -21.15659189 0 0 Z " fill="#FFFFFF" transform="translate(484.625,770.18359375)"/>
<path d="M0 0 C6.27878634 4.73662829 10.18426999 10.67181043 11.28515625 18.515625 C11.6131126 25.49836221 9.28868175 31.90597306 4.59375 37.12890625 C-1.89367766 42.77153375 -8.90092008 44.90075414 -17.33984375 44.7890625 C-24.68202027 44.02245289 -31.12391364 39.93927691 -35.99609375 34.51171875 C-40.57868671 28.46486531 -40.97796329 21.88069927 -39.99609375 14.51171875 C-37.58154405 6.67411624 -31.97312821 1.55839874 -24.99609375 -2.48828125 C-16.48726573 -5.99191632 -7.71349906 -4.81576239 0 0 Z " fill="#FFFFFF" transform="translate(747.99609375,212.48828125)"/>
</svg>
