<?xml version="1.0" encoding="UTF-8"?>
<svg version="1.1" xmlns="http://www.w3.org/2000/svg" width="1061" height="618">
<path d="M0 0 C1.16015625 0.10054688 1.16015625 0.10054688 2.34375 0.203125 C5.00885915 0.87905848 5.83302756 1.57197236 7.5 3.75 C7.87259549 6.25780123 7.87259549 6.25780123 7.86914349 9.3197279 C7.87511663 10.48567177 7.88108978 11.65161564 7.88724393 12.85289115 C7.8785054 14.13983841 7.86976688 15.42678566 7.86076355 16.75273132 C7.86207111 18.12888083 7.86469661 19.5050296 7.86853105 20.88117439 C7.87525782 24.6712155 7.86321346 28.46100359 7.84819686 32.25101244 C7.83527219 36.33484251 7.83962343 40.41865768 7.84190369 44.50250244 C7.84347869 51.580847 7.83404584 58.65910875 7.81719017 65.73743248 C7.79283539 75.97155618 7.78499851 86.20563974 7.7812262 96.43978927 C7.77465617 113.04297142 7.75468008 129.64610941 7.72631836 146.24926758 C7.69879203 162.3801247 7.67755148 178.51096984 7.66479492 194.6418457 C7.66400675 195.63572706 7.66321858 196.62960842 7.66240653 197.65360739 C7.65849149 202.63949114 7.65470035 207.62537497 7.65097082 212.61125886 C7.61985775 253.99087846 7.56454544 295.3704164 7.5 336.75 C38.19 336.75 68.88 336.75 100.5 336.75 C100.47905273 326.71368164 100.45810547 316.67736328 100.43652344 306.33691406 C100.37236376 274.24787446 100.32784745 242.15883463 100.29573868 210.06974758 C100.29073568 205.08783937 100.28555841 200.10593136 100.28027344 195.12402344 C100.27869957 193.63627114 100.27869957 193.63627114 100.27709392 192.11846325 C100.25967463 176.04535043 100.22812857 159.97229467 100.19138882 143.89921573 C100.15402176 127.41457908 100.13177313 110.92997236 100.12364602 94.4452951 C100.11814944 84.26811961 100.10077069 74.09110537 100.06833413 63.9139795 C100.0472385 56.94117991 100.04078869 49.96846403 100.04599449 42.99563482 C100.04856402 38.96879872 100.04454373 34.94224496 100.0231781 30.91545868 C100.00377371 27.23152353 100.00268964 23.54806171 100.01640442 19.86410519 C100.0189062 17.89464128 100.00159933 15.92518327 99.98367476 13.95579934 C99.99163896 12.79134782 99.99960315 11.62689629 100.00780869 10.42715836 C100.0062898 9.42014004 100.00477092 8.41312172 100.00320601 7.3755877 C100.63624895 4.02991564 101.87930917 2.85313044 104.5 0.75 C108.74862729 -0.64087441 112.40827119 -0.72763136 116.5 1.0625 C119.25298665 3.38533248 119.46090592 4.30693371 119.78125 7.9375 C119.92708333 10.47916667 120.07291667 13.02083333 120.21875 15.5625 C120.29425082 18.64422513 120.29425082 18.64422513 121.5 20.75 C123.68282269 21.45504511 125.90144181 22.04974595 128.12890625 22.59765625 C128.81708435 22.77002808 129.50526245 22.9423999 130.21429443 23.11999512 C131.70946589 23.4940691 133.20551236 23.86465864 134.70230103 24.23220825 C138.71770071 25.21945692 142.72597805 26.23475335 146.734375 27.25 C147.55500931 27.45742325 148.37564362 27.6648465 149.22114563 27.8785553 C157.12428608 29.88698302 164.97216249 32.07311871 172.8125 34.3125 C180.76171425 36.58255828 188.71180831 38.82924288 196.7109375 40.91796875 C197.72117226 41.18263695 197.72117226 41.18263695 198.7518158 41.45265198 C201.93868282 42.28642743 205.12711771 43.11184735 208.31958008 43.92407227 C230.05408199 49.58112298 230.05408199 49.58112298 233.5 54.75 C233.375 57.25 233.375 57.25 232.5 59.75 C229.80847271 62.11094319 227.28449531 63.35220686 223.8984375 64.44921875 C222.95581055 64.76270264 222.01318359 65.07618652 221.04199219 65.39916992 C219.99688477 65.74181885 218.95177734 66.08446777 217.875 66.4375 C205.88262546 70.47713636 194.06231274 74.90159886 182.25 79.4375 C168.71847052 84.62487128 155.1779061 89.78367456 141.58728027 94.81460571 C139.91270077 95.43501301 138.23878237 96.05720782 136.56555176 96.6812439 C134.25511891 97.54240576 131.94242488 98.39716892 129.62890625 99.25 C128.94657425 99.50542068 128.26424225 99.76084137 127.56123352 100.02400208 C124.71952174 101.06370619 122.55403468 101.75 119.5 101.75 C119.5 179.63 119.5 257.51 119.5 337.75 C180.43531072 337.42237154 180.43531072 337.42237154 241.37060547 337.09179688 C259.35695935 336.9947983 277.34333155 336.90553034 295.32976723 336.8252182 C304.36174979 336.78471542 313.39366497 336.74079457 322.42555654 336.68332243 C327.76859759 336.64971342 333.11163383 336.6256827 338.45474625 336.60694885 C340.42952475 336.5984116 342.40429274 336.58646545 344.37902451 336.57041931 C360.36861714 336.4428606 376.23761264 337.37732682 391.875 340.9375 C392.82705322 341.15108154 393.77910645 341.36466309 394.76000977 341.5847168 C410.94200187 345.35645932 425.90255538 350.84848143 440.5 358.75 C441.469375 359.24113281 442.43875 359.73226563 443.4375 360.23828125 C462.6729444 370.16354689 480.87007619 384.47805353 488.125 405.5 C489.91366953 412.19730143 489.996699 417.96423194 487.4375 424.4375 C473.52713561 441.04019298 451.56946399 442.54659714 431.28362003 444.46849604 C419.03513189 445.37979207 406.71361266 445.16991628 394.43903657 445.14160402 C390.02603325 445.13480583 385.61306345 445.14560382 381.20006764 445.15399987 C373.49043247 445.16629427 365.78085822 445.16761074 358.07121658 445.16144943 C346.60715543 445.15231234 335.14315006 445.1604267 323.67909317 445.17174067 C303.20258088 445.19135286 282.72609399 445.19376597 262.24957456 445.18854547 C244.34108382 445.18398203 226.43260311 445.18459539 208.5241127 445.19038582 C206.11865577 445.19114269 203.71319885 445.19189867 201.30774192 445.19265376 C197.68276649 445.19379898 194.05779107 445.19494886 190.43281565 445.19611301 C156.76160043 445.20680815 123.09038853 445.2115527 89.41917229 445.20364285 C88.15143939 445.20334567 86.88370649 445.2030485 85.57755745 445.20274232 C75.28352105 445.20029353 64.98948469 445.19768188 54.69544833 445.19505819 C14.49242497 445.18494309 -25.71055667 445.19333908 -65.91357422 445.21655273 C-111.10565441 445.24260508 -156.29770949 445.25547991 -201.48979747 445.24836498 C-206.30413047 445.24764892 -211.11846347 445.24697454 -215.93279648 445.24632454 C-217.11817142 445.24615473 -218.30354636 445.24598492 -219.52484176 445.24580997 C-237.43507985 445.24350489 -255.34529464 445.25149322 -273.2555275 445.26461601 C-293.60348389 445.27949853 -313.95138555 445.28040807 -334.29934074 445.2625451 C-345.69135552 445.25295671 -357.08324275 445.25446891 -368.47524911 445.27177979 C-376.07690014 445.2822281 -383.67845349 445.2782273 -391.28009482 445.26229975 C-395.61569692 445.25362472 -399.95104811 445.25134822 -404.2866378 445.26656907 C-408.22864678 445.28027828 -412.1701884 445.27566769 -416.11216969 445.25628388 C-417.53119594 445.25254027 -418.95025958 445.25553225 -420.36925218 445.26599697 C-433.61463954 445.35696757 -433.61463954 445.35696757 -439.5 440.75 C-442.82938431 436.45684655 -444.63598553 432.93468988 -444.75 427.5 C-444.77578125 426.77296875 -444.8015625 426.0459375 -444.828125 425.296875 C-443.92144696 418.25932642 -439.83009842 413.15094419 -435.5625 407.75 C-434.98693359 407.00943359 -434.41136719 406.26886719 -433.81835938 405.50585938 C-429.60732183 400.10484627 -425.33021567 394.7558428 -421.02832031 389.42700195 C-417.77771282 385.3893884 -414.61642844 381.29324272 -411.49145508 377.15771484 C-393.93811852 353.94555217 -375.33951817 342.27326679 -346.375 337.9375 C-298.1070786 331.4464607 -298.1070786 331.4464607 -283.5 338.75 C-283.5 330.5 -283.5 322.25 -283.5 313.75 C-285.56378906 313.79898437 -287.62757813 313.84796875 -289.75390625 313.8984375 C-298.52101483 313.97055051 -307.08096998 312.87168316 -315.7585144 311.72747803 C-331.48704808 309.658052 -347.13369753 308.0639727 -362.98999023 307.47119141 C-364.81832397 307.38877197 -364.81832397 307.38877197 -366.68359375 307.3046875 C-367.74118896 307.26843262 -368.79878418 307.23217773 -369.88842773 307.19482422 C-372.5 306.75 -372.5 306.75 -374.37158203 305.36865234 C-375.5 303.75 -375.5 303.75 -375.37109375 301.296875 C-372.89217805 294.04910353 -365.47612518 288.80559508 -359.90234375 283.90234375 C-357.86804531 282.07974466 -355.95565472 280.21579375 -354.0625 278.25 C-349.54369698 273.6790168 -344.53603731 269.73002372 -339.5 265.75 C-338.88334473 265.25693359 -338.26668945 264.76386719 -337.63134766 264.25585938 C-317.94301738 248.55938765 -289.04943408 227.75 -262.5 227.75 C-262.63631836 226.08167114 -262.63631836 226.08167114 -262.77539062 224.37963867 C-263.11851666 220.15497131 -263.45147165 215.92954785 -263.78173828 211.70385742 C-263.92457896 209.89342366 -264.06998562 208.08319006 -264.21826172 206.27319336 C-265.00594385 196.63614355 -265.64574948 187.02359724 -265.72265625 177.3515625 C-265.74005859 176.20079475 -265.74005859 176.20079475 -265.7578125 175.02677917 C-265.74510535 167.39258607 -263.79260648 160.85322279 -258.9609375 154.83203125 C-251.1776436 147.36228236 -240.09184729 145.3576087 -229.69921875 145.47265625 C-222.13004166 146.12883644 -215.55655526 148.92420032 -209.94140625 154.03125 C-208.35539759 155.92242564 -207.56724051 157.75458801 -206.5625 160 C-205.47991694 162.16403646 -205.47991694 162.16403646 -203.5 163.75 C-199.47605079 164.71061274 -195.57912089 165.08856889 -191.46484375 165.40625 C-185.157113 165.95312715 -180.45351702 167.12899651 -175.5625 171.1875 C-172.27399381 175.27321981 -172.27399381 175.27321981 -171.5 177.75 C-171.79395703 179.42406038 -172.12378789 181.09248579 -172.5 182.75 C-173.48395752 182.76458252 -174.46791504 182.77916504 -175.48168945 182.79418945 C-179.13293774 182.85216998 -182.78356911 182.92940185 -186.43432617 183.01245117 C-188.01430243 183.04570188 -189.59439752 183.07373346 -191.17456055 183.09643555 C-193.44631579 183.12998016 -195.71698203 183.18229227 -197.98828125 183.23828125 C-199.04780754 183.24786613 -199.04780754 183.24786613 -200.1287384 183.25764465 C-204.01402865 183.36486115 -204.01402865 183.36486115 -207.37573242 185.13793945 C-208.8502426 187.25220454 -210.20036985 189.39802958 -211.5 191.625 C-212.2425 192.88957031 -212.2425 192.88957031 -213 194.1796875 C-213.7425 195.45199219 -213.7425 195.45199219 -214.5 196.75 C-215.05002686 197.51981201 -215.60005371 198.28962402 -216.16674805 199.08276367 C-217.83219611 202.41457471 -217.49000774 203.51649565 -216.33203125 206.99609375 C-215.85842163 208.48882812 -215.85842163 208.48882812 -215.37524414 210.01171875 C-214.84918579 211.58373047 -214.84918579 211.58373047 -214.3125 213.1875 C-207.55567191 234.83518246 -204.73807466 258.78290735 -214.5 280.0625 C-222.26286506 294.17827342 -233.93651111 303.98184805 -249.28125 309.1640625 C-254.6402936 310.57930289 -260.06833812 311.65322212 -265.5 312.75 C-265.83 321.33 -266.16 329.91 -266.5 338.75 C-265.84 338.42 -265.18 338.09 -264.5 337.75 C-261.9438334 337.64444118 -259.41432172 337.59951567 -256.85754395 337.59851074 C-256.05903031 337.59427833 -255.26051667 337.59004592 -254.43780565 337.58568525 C-251.74564467 337.57260768 -249.05351336 337.56662193 -246.36132812 337.56054688 C-244.43592649 337.55260658 -242.51052666 337.5442188 -240.58512878 337.53541565 C-236.4245506 337.51731384 -232.26397652 337.50231212 -228.1033783 337.48963928 C-221.49048375 337.46938046 -214.87763281 337.44171831 -208.26477051 337.41296387 C-195.36991378 337.35787811 -182.47503568 337.30987799 -169.58014679 337.26302338 C-153.28451005 337.2037453 -136.98888588 337.14267027 -120.69329214 337.07245111 C-115.2148912 337.0490632 -109.73649631 337.0274735 -104.2580719 337.01036072 C-83.11432389 336.94407563 -61.98474529 336.85886753 -40.85283661 336.09137726 C-30.73133022 335.73081643 -20.6262507 335.70256511 -10.5 335.75 C-10.50170874 334.70169939 -10.50170874 334.70169939 -10.503452 333.63222098 C-10.57054323 292.23880298 -10.62203791 250.84539127 -10.65319599 209.45192985 C-10.65694824 204.48504299 -10.6608312 199.51815623 -10.66479492 194.55126953 C-10.66558185 193.56242528 -10.66636878 192.57358104 -10.66717956 191.55477181 C-10.68024399 175.53017115 -10.70390353 159.50560268 -10.73145839 143.48102114 C-10.75948376 127.04610348 -10.77617018 110.61120271 -10.78226548 94.17626214 C-10.78638789 84.02982675 -10.79942191 73.88348234 -10.8237494 63.73707494 C-10.8395712 56.78530799 -10.84440845 49.83358828 -10.84050413 42.88180462 C-10.83857702 38.86716836 -10.84159214 34.85269141 -10.85761642 30.83808327 C-10.87216966 27.1653163 -10.87298243 23.49281641 -10.86269668 19.82003739 C-10.8608204 17.85655085 -10.87380021 15.89306764 -10.88724393 13.92962623 C-10.88127078 12.7686581 -10.87529764 11.60768997 -10.86914349 10.41154099 C-10.87085223 8.90557016 -10.87085223 8.90557016 -10.87259549 7.36917567 C-10.4367009 4.30503633 -9.64650495 2.95353925 -7.5 0.75 C-4.51786685 -0.24404438 -3.05541462 -0.30554146 0 0 Z M-232.875 166.375 C-234.80330343 168.65217604 -234.80330343 168.65217604 -234.25 171.5 C-234.0025 172.2425 -233.755 172.985 -233.5 173.75 C-230.09679066 174.42673447 -230.09679066 174.42673447 -226.5 174.75 C-225.84 174.09 -225.18 173.43 -224.5 172.75 C-224.82326553 169.15320934 -224.82326553 169.15320934 -225.5 165.75 C-228.81371301 164.645429 -229.9176496 164.35154973 -232.875 166.375 Z M-387.078125 373.15234375 C-391.13248462 377.50097141 -394.63610246 382.21385039 -398.16845703 386.98339844 C-400.47741154 390.04676382 -402.90043113 393.01765559 -405.3125 396 C-411.42142757 403.5870387 -417.37517355 411.29348246 -423.22314453 419.08349609 C-424.24797469 420.42106601 -425.33204231 421.71315201 -426.43359375 422.98828125 C-427.75496308 424.72093106 -427.75496308 424.72093106 -427.06665039 426.86010742 C-426.87965576 427.48377197 -426.69266113 428.10743652 -426.5 428.75 C-406.9331621 428.96033605 -387.3665539 429.11899486 -367.79881954 429.21630955 C-358.71290715 429.26269781 -349.62769757 429.32592806 -340.54223633 429.42895508 C-332.62235132 429.51872184 -324.7029753 429.57673806 -316.78259569 429.59679645 C-312.58932099 429.60852047 -308.39750224 429.63602513 -304.20469475 429.70157051 C-300.25538007 429.76280739 -296.30811609 429.78147721 -292.35837173 429.76796913 C-290.91150946 429.77043889 -289.46457645 429.7882619 -288.01812553 429.82284927 C-280.01696919 430.17623826 -280.01696919 430.17623826 -273.11548328 426.77834892 C-271.32891118 424.51145778 -269.89021061 422.27434669 -268.5 419.75 C-267.47386597 418.33267578 -267.47386597 418.33267578 -266.42700195 416.88671875 C-265.86972412 416.07847656 -265.31244629 415.27023437 -264.73828125 414.4375 C-264.10011475 413.51549805 -263.46194824 412.59349609 -262.80444336 411.64355469 C-262.14710205 410.68868164 -261.48976074 409.73380859 -260.8125 408.75 C-259.4042015 406.71315736 -257.99534242 404.6767022 -256.5859375 402.640625 C-255.8959668 401.64353516 -255.20599609 400.64644531 -254.49511719 399.61914062 C-251.67159084 395.55868032 -248.80512505 391.52936425 -245.9375 387.5 C-242.19248558 382.23049369 -238.64419414 376.88906655 -235.234375 371.39453125 C-232.43970456 367.13328826 -229.33033037 363.12228219 -226.22265625 359.0859375 C-224.40107994 357.09960323 -224.40107994 357.09960323 -224.5 355.75 C-310.66626286 345.79576745 -310.66626286 345.79576745 -387.078125 373.15234375 Z M-212.52318859 364.67584229 C-213.2485369 366.05081433 -213.93974495 367.44455969 -214.58892632 368.85709 C-215.8607982 371.49961941 -217.61448261 373.63785758 -219.48828125 375.87890625 C-220.60086416 377.35337856 -221.70898232 378.83123093 -222.8125 380.3125 C-223.42367676 381.13057129 -224.03485352 381.94864258 -224.66455078 382.79150391 C-243.6840368 404.40104736 -243.6840368 404.40104736 -255.5 428.75 C-232.68235301 429.26506858 -209.86567047 429.65241664 -187.04337978 429.88986778 C-176.44498762 430.00308015 -165.85021677 430.15725236 -155.25415039 430.40966797 C-146.01279523 430.62970624 -136.77406241 430.77104807 -127.53016049 430.81994689 C-122.63867819 430.84851819 -117.75469326 430.91505539 -112.8656292 431.07606125 C-93.36243402 432.54398035 -93.36243402 432.54398035 -75.45384598 426.63773346 C-70.55754554 421.59313564 -67.56998017 415.95261609 -64.8229847 409.53863907 C-62.66940736 404.99924423 -59.60828801 401.23028225 -56.5 397.3125 C-51.20857358 390.25543901 -46.25694709 383.01202053 -41.4375 375.625 C-40.81810547 374.6769751 -40.19871094 373.7289502 -39.56054688 372.75219727 C-36.87056985 368.58869914 -34.2927267 364.4105643 -31.89234924 360.07302856 C-31.44382882 359.26326632 -30.9953084 358.45350407 -30.53319645 357.61920357 C-30.19224162 357.00236639 -29.85128679 356.38552921 -29.5 355.75 C-51.83064178 355.24473902 -74.16129635 354.83253366 -96.49563885 354.52985382 C-106.86699676 354.38714945 -117.23620876 354.21448182 -127.60571289 353.97021484 C-136.64818745 353.75728494 -145.68956436 353.60165096 -154.73414832 353.51361704 C-159.52034399 353.46506092 -164.30229287 353.38865773 -169.08661461 353.24351501 C-193.92750244 351.18683398 -193.92750244 351.18683398 -212.52318859 364.67584229 Z M175.48972774 367.86807251 C173.97211309 370.75375573 172.13045092 373.33783183 170.25 376 C169.52425781 377.04542969 168.79851563 378.09085937 168.05078125 379.16796875 C164.91959611 383.60307158 161.67126553 387.95199731 158.4375 392.3125 C153.2340956 399.3310936 148.26401276 406.42469005 143.5 413.75 C142.02264304 415.95954442 140.54348621 418.16788651 139.0625 420.375 C136.6204772 423.9694901 136.6204772 423.9694901 134.5 427.75 C170.90836343 427.79589957 207.31672174 427.83108094 243.72510821 427.85213066 C248.03532609 427.85463171 252.34554392 427.85722039 256.65576172 427.85986328 C257.94275005 427.86065021 257.94275005 427.86065021 259.25573814 427.86145304 C273.10053295 427.87012685 286.94531094 427.88587993 300.79009581 427.90430559 C315.02384685 427.92308921 329.25758916 427.9341345 343.49135208 427.93817699 C352.25578453 427.94090461 361.02016942 427.9494807 369.7845872 427.96583293 C375.81607548 427.97650461 381.84753961 427.97957793 387.87903661 427.97700275 C391.34524841 427.97573707 394.81137785 427.97750619 398.27757454 427.98841095 C433.90029622 429.81202894 433.90029622 429.81202894 467.5 420.75 C470.15166721 417.87104703 471.9640178 415.65195045 472.5 411.75 C469.41190847 398.39854544 458.52305053 390.50982699 447.55175781 383.50634766 C442.61487568 380.44349938 437.58580469 377.55751177 432.5 374.75 C431.8292041 374.37955566 431.1584082 374.00911133 430.46728516 373.62744141 C409.80865171 362.38828849 385.18545139 354.77928366 361.5819397 354.52880859 C360.82670277 354.51737068 360.07146584 354.50593277 359.29334295 354.49414825 C356.78495754 354.4576377 354.27654421 354.42786558 351.76806641 354.3984375 C349.9604721 354.37414085 348.1528804 354.34965048 346.34529114 354.32498169 C329.89694612 354.10919172 313.44748691 353.98733505 296.99805641 353.89068604 C285.94960895 353.82431111 274.9029098 353.72943351 263.85546875 353.56347656 C254.19913969 353.41843013 244.54402316 353.32624941 234.88661897 353.29800224 C229.78100731 353.28134561 224.67863804 353.23895627 219.5740242 353.13348389 C214.77105433 353.03521923 209.97284662 353.00833308 205.16899681 353.0350914 C203.41204234 353.03257143 201.6549006 353.00455202 199.89883995 352.94845963 C186.51311238 352.54274034 181.50353303 355.91039953 175.48972774 367.86807251 Z M-15.07359314 364.00274944 C-15.5443074 364.90934213 -16.01502167 365.81593481 -16.5 366.75 C-17.39023906 368.07737889 -18.29570922 369.39499392 -19.23046875 370.69140625 C-20.05047554 371.89776082 -20.86947506 373.10480066 -21.6875 374.3125 C-25.71475404 380.21947254 -29.85349416 386.03384582 -34.0625 391.8125 C-39.76353227 399.65215611 -45.21445631 407.62519585 -50.5 415.75 C-51.35464844 417.05517578 -51.35464844 417.05517578 -52.2265625 418.38671875 C-54.6545725 421.7954423 -54.6545725 421.7954423 -55.5 425.75 C-56.16 425.75 -56.82 425.75 -57.5 425.75 C-57.83 426.74 -58.16 427.73 -58.5 428.75 C-36.2124631 429.00707857 -13.92517099 429.20099408 8.36354828 429.31993389 C18.71292207 429.37663063 29.06137414 429.45391106 39.41015625 429.57983398 C48.43131837 429.68955014 57.45181298 429.76045768 66.47362375 429.78497344 C71.25007682 429.79930292 76.0246205 429.83291758 80.80046082 429.91303062 C85.29904583 429.98787916 89.79494171 430.0106946 94.29409027 429.99418449 C95.94213754 429.99720304 97.59027757 430.01898685 99.23778534 430.06126022 C108.36254694 430.45880131 108.36254694 430.45880131 116.19099426 426.39954567 C118.2638072 423.59970059 119.90448327 420.84209329 121.5 417.75 C122.5710245 416.01318251 123.65263402 414.28279543 124.75 412.5625 C125.59691406 411.20898438 125.59691406 411.20898438 126.4609375 409.828125 C130.82243457 403.24410261 135.71348817 397.0280318 140.5 390.75 C145.73207396 383.86660701 150.85957955 376.91756166 155.875 369.875 C156.38740234 369.16093994 156.89980469 368.44687988 157.42773438 367.71118164 C157.91306641 367.02531982 158.39839844 366.33945801 158.8984375 365.6328125 C159.32817871 365.02840332 159.75791992 364.42399414 160.20068359 363.80126953 C161.84018431 361.2129409 163.14366819 358.49536776 164.5 355.75 C142.08207747 355.49292464 119.66439828 355.29900746 97.24530029 355.18006611 C86.8353953 355.12336871 76.42640663 355.04608694 66.01708984 354.92016602 C56.94319005 354.81045197 47.86995386 354.7395428 38.7954092 354.71502656 C33.99101538 354.70069675 29.18851978 354.66707973 24.38473511 354.58696938 C19.85988937 354.51212432 15.33771714 354.48930478 10.81231117 354.50581551 C9.15458943 354.50279682 7.49677552 354.48101112 5.83959007 354.43873978 C-3.97032862 354.20084887 -9.73187636 354.7968521 -15.07359314 364.00274944 Z " fill="#F6F6F6" transform="translate(496.5,71.25)"/>
<path d="M0 0 C17.23600443 9.73589483 34.42868158 15.27592101 54.30371094 10.30126953 C64.37354769 7.21515351 73.51305474 2.18006536 82.80371094 -2.69873047 C111.23088945 -17.61392134 135.5340213 -22.73421513 166.97558594 -13.63623047 C177.24726831 -9.95682186 186.66408535 -4.15575521 195.94042969 1.52001953 C210.76452279 10.49569765 227.98188696 14.78020892 245.23339844 11.19189453 C257.85829283 7.52971143 269.32503889 0.74656645 280.72802734 -5.63525391 C304.74552415 -18.91399888 328.9156302 -22.29569015 355.30371094 -14.69873047 C366.93110481 -10.91207665 377.5355602 -5.1444951 388.01245117 1.08837891 C403.24888089 10.14795852 419.14662725 15.01718708 436.99121094 11.36376953 C449.38981496 7.84480234 460.92344419 1.07699529 472.24121094 -4.94873047 C497.5750426 -18.40380995 522.34172748 -22.03011141 549.96850586 -13.90063477 C560.37837308 -10.59472863 569.58054571 -5.42140482 579.01611328 0 C587.76389181 4.97605758 596.38798743 9.20757791 606.30371094 11.30126953 C607.29371094 11.52814453 608.28371094 11.75501953 609.30371094 11.98876953 C628.93729827 14.03393488 643.5573684 6.83539323 660.07543945 -2.52832031 C668.61862969 -7.35941563 676.99442909 -11.52582563 686.30371094 -14.69873047 C687.274375 -15.03775391 688.24503906 -15.37677734 689.24511719 -15.72607422 C715.76788882 -23.38977787 743.65179761 -15.42362223 766.99121094 -2.57373047 C767.59924561 -2.23680176 768.20728027 -1.89987305 768.83374023 -1.55273438 C776.16569182 2.44223296 783.92936861 5.18930436 792.02246094 7.24658203 C796.60750028 8.72034468 796.60750028 8.72034468 798.30371094 11.30126953 C799.04962113 15.27214437 798.75007642 19.08120387 797.36621094 22.86376953 C793.99438656 25.21382894 790.29687854 24.59475943 786.30371094 24.30126953 C783.59848508 23.71134489 781.20653646 23.07696648 778.61621094 22.17626953 C777.87999512 21.9283667 777.1437793 21.68046387 776.38525391 21.42504883 C767.00267745 18.08671051 758.0409804 13.63182563 749.11352539 9.24023438 C732.0444189 0.92666641 711.05934767 -3.343569 692.35449219 2.14892578 C683.84731414 5.36226448 675.91826154 9.8083058 668.02246094 14.28173828 C646.21288416 26.58103523 623.52059002 34.97721827 598.30371094 28.30126953 C586.16945478 24.80793909 575.39679147 19.4679545 564.57202148 13.0090332 C553.94569706 6.70347955 543.81584856 2.6405451 531.55371094 0.86376953 C530.4198999 0.69619141 529.28608887 0.52861328 528.11791992 0.35595703 C505.1807723 -2.70254716 487.81721654 6.48352119 468.37792969 17.52001953 C448.23224812 28.84578104 426.24028709 34.02674858 403.46044922 27.96801758 C393.59286447 24.91748849 384.80904076 20.57817075 375.92871094 15.36376953 C354.55190669 3.16223119 332.73986251 -4.78347914 307.93261719 1.15283203 C298.87663844 4.01877148 290.71981664 8.96352435 282.44433594 13.53955078 C258.26087266 26.88116944 236.92421126 34.15824172 209.30371094 27.30126953 C198.64118445 24.12323788 189.23647537 18.65193603 179.68603516 13.05957031 C171.04270932 8.0132406 162.54998601 3.312501 152.61621094 1.55126953 C151.33875 1.32310547 150.06128906 1.09494141 148.74511719 0.85986328 C147.60945313 0.67552734 146.47378906 0.49119141 145.30371094 0.30126953 C144.52898437 0.16849609 143.75425781 0.03572266 142.95605469 -0.10107422 C125.37506639 -2.73641743 110.32632884 2.62055708 95.05371094 10.67626953 C93.78367246 11.33145844 92.51283824 11.98510717 91.24121094 12.63720703 C88.76305559 13.91077402 86.2878948 15.18982318 83.81591797 16.4753418 C82.65688965 17.07789795 81.49786133 17.6804541 80.30371094 18.30126953 C79.21558105 18.8670874 78.12745117 19.43290527 77.00634766 20.01586914 C71.41112004 22.87779591 65.96832541 25.36803918 59.92871094 27.11376953 C59.27 27.31679688 58.61128906 27.51982422 57.93261719 27.72900391 C39.23039358 33.3619798 18.54766586 30.05361963 1.30371094 21.30126953 C-2.30011625 19.30995025 -5.82611297 17.19396249 -9.34716797 15.06054688 C-28.94374801 3.23278687 -51.47623399 -4.28759728 -74.42675781 0.93408203 C-86.0772013 4.32401984 -97.17796887 10.74134416 -107.73413086 16.6262207 C-129.36592372 28.66372271 -152.78339523 32.40534773 -176.72363281 25.59814453 C-182.961446 23.65988445 -188.8642127 20.9402995 -194.77783203 18.19042969 C-202.29764136 14.70517319 -209.7485816 11.48832618 -217.75878906 9.30126953 C-221.4405423 8.20438578 -224.35651222 7.33335489 -227.07128906 4.55126953 C-229.30536254 0.08312258 -228.9575895 -1.89002253 -227.69628906 -6.69873047 C-226.43066406 -8.43701172 -226.43066406 -8.43701172 -224.69628906 -9.69873047 C-212.22250569 -11.13456165 -199.02818053 -3.96127037 -188.19628906 1.36376953 C-170.36252813 10.03651531 -151.56166035 14.15222663 -132.18066406 7.69189453 C-122.48250954 3.82133062 -113.23090709 -0.82680913 -104.07128906 -5.82373047 C-68.07828164 -25.29054451 -34.47917251 -19.65602806 0 0 Z " fill="#ECECEC" transform="translate(245.6962890625,572.69873046875)"/>
<path d="M0 0 C5.85502847 4.81413452 10.23604619 10.70517661 11.02734375 18.40234375 C11.34578629 25.85389923 9.4728054 32.28899156 4.40234375 37.9296875 C-2.38029887 43.82908673 -9.52563755 45.69509888 -18.30859375 45.58984375 C-25.78239019 44.86984436 -32.22044404 40.83288085 -37.1875 35.3125 C-42.02619143 29.05655872 -42.13197149 21.94459285 -41.1875 14.3125 C-38.83717007 6.46968781 -33.14004047 1.34497347 -26.1875 -2.6875 C-16.55671118 -6.18960502 -8.80994315 -4.66408755 0 0 Z " fill="#F1F1F1" transform="translate(510.1875,16.6875)"/>
<path d="M0 0 C-2.94048492 1.47024246 -5.52461565 1.10367472 -8.80825806 1.08229065 C-9.51642146 1.07906152 -10.22458487 1.07583239 -10.95420778 1.07250541 C-13.33882899 1.06039417 -15.72333708 1.04102893 -18.10791016 1.02172852 C-19.81261446 1.01158955 -21.51732145 1.00189547 -23.22203064 0.99261475 C-27.86023104 0.96609544 -32.49836902 0.9333238 -37.13652086 0.89946485 C-41.97985689 0.86515967 -46.82322643 0.83655568 -51.66659546 0.80735779 C-60.84283523 0.75116764 -70.01903303 0.68981904 -79.19522703 0.62663645 C-89.6400319 0.55496857 -100.08487041 0.48902195 -110.52971578 0.42356598 C-132.01985421 0.28876244 -153.50993998 0.14674133 -175 0 C-175 -0.33 -175 -0.66 -175 -1 C-152.47822321 -1.17711904 -129.95638835 -1.34280358 -107.43442726 -1.49477577 C-96.97772106 -1.56560313 -86.52106705 -1.64020991 -76.06445312 -1.72363281 C-66.9533047 -1.79631209 -57.84213773 -1.86198301 -48.73087823 -1.91914403 C-43.9039795 -1.94967366 -39.07716428 -1.98377632 -34.25035477 -2.02626419 C-29.71148474 -2.06610694 -25.17264975 -2.09661141 -20.63366508 -2.11981392 C-18.96387046 -2.1300214 -17.29409308 -2.1437021 -15.62435722 -2.16103554 C-13.35226655 -2.18411325 -11.08044525 -2.19492578 -8.80825806 -2.20254517 C-6.8973812 -2.21637206 -6.8973812 -2.21637206 -4.94790077 -2.23047829 C-2 -2 -2 -2 0 0 Z " fill="#000000" transform="translate(663,427)"/>
<path d="M0 0 C0 0.33 0 0.66 0 1 C-1.0725 1.268125 -2.145 1.53625 -3.25 1.8125 C-6.56508928 2.86227827 -8.43877646 3.74612328 -11 6 C-11 4.68 -11 3.36 -11 2 C-7.17010894 0.19769832 -4.21878192 -0.19622241 0 0 Z " fill="#AEAEAE" transform="translate(610,71)"/>
</svg>
